<svg xmlns="http://www.w3.org/2000/svg" viewBox="0 0 1080 1920" role="img" aria-label="Record page after redesign">
  <defs>
    <linearGradient id="bg2" x1="0" x2="0" y1="0" y2="1">
      <stop offset="0%" stop-color="#0b1020"/>
      <stop offset="100%" stop-color="#0a1121"/>
    </linearGradient>
    <linearGradient id="hero2" x1="0" x2="1" y1="0" y2="0">
      <stop offset="0%" stop-color="#6d4327"/>
      <stop offset="100%" stop-color="#2c2a33"/>
    </linearGradient>
  </defs>
  <rect width="1080" height="1920" fill="url(#bg2)"/>
  <text x="42" y="86" fill="#ffffff" font-size="56" font-family="Arial, sans-serif" font-weight="700">记录</text>

  <g transform="translate(0 126)">
    <text x="170" y="80" fill="#ff8a2b" font-size="34" font-family="Arial, sans-serif" font-weight="700">训练</text>
    <text x="505" y="80" fill="#677085" font-size="34" font-family="Arial, sans-serif" font-weight="700">进步</text>
    <text x="855" y="80" fill="#677085" font-size="34" font-family="Arial, sans-serif" font-weight="700">徽章</text>
    <rect x="132" y="108" width="70" height="10" rx="5" fill="#ff8a2b"/>
    <rect x="0" y="118" width="1080" height="3" fill="#222b3c"/>
  </g>

  <g transform="translate(22 294)">
    <rect x="0" y="0" width="1036" height="326" rx="42" fill="url(#hero2)" stroke="#51403f" stroke-width="3"/>
    <text x="46" y="64" fill="#8f8177" font-size="30" font-family="Arial, sans-serif" font-weight="700">本月最高</text>
    <text x="46" y="206" fill="#ffffff" font-size="168" font-family="Arial, sans-serif" font-weight="700">V5</text>
    <text x="46" y="286" fill="#8b90a4" font-size="30" font-family="Arial, sans-serif" font-weight="700">3 次训练</text>
    <text x="860" y="126" fill="#f7de4c" font-size="72" font-family="Arial, sans-serif" font-weight="700">1</text>
    <text x="928" y="126" fill="#f7de4c" font-size="30" font-family="Arial, sans-serif" font-weight="700">FLASH</text>
    <text x="860" y="214" fill="#72df82" font-size="72" font-family="Arial, sans-serif" font-weight="700">1</text>
    <text x="928" y="214" fill="#72df82" font-size="30" font-family="Arial, sans-serif" font-weight="700">SEND</text>
  </g>

  <g transform="translate(30 658)">
    <rect x="0" y="0" width="1020" height="106" rx="34" fill="#171f31" stroke="#232d42" stroke-width="3"/>
    <circle cx="48" cy="53" r="14" fill="#8c96aa"/>
    <rect x="42" y="62" width="12" height="18" rx="6" fill="#8c96aa"/>
    <text x="88" y="66" fill="#80879a" font-size="28" font-family="Arial, sans-serif" font-weight="700">最近：考拉攀岩(狮山店)（37.7km）</text>
    <text x="968" y="67" fill="#80879a" font-size="46" font-family="Arial, sans-serif" font-weight="700">C</text>
  </g>

  <g transform="translate(0 804)">
    <circle cx="540" cy="220" r="164" fill="#f08a37"/>
    <circle cx="540" cy="220" r="194" fill="none" stroke="rgba(240,138,55,0.22)" stroke-width="30"/>
    <text x="540" y="190" text-anchor="middle" fill="#ffffff" font-size="48" font-family="Arial, sans-serif">▲</text>
    <text x="540" y="250" text-anchor="middle" fill="#ffffff" font-size="34" font-family="Arial, sans-serif" letter-spacing="10">GO</text>
    <text x="540" y="330" text-anchor="middle" fill="#ffffff" font-size="62" font-family="Arial, sans-serif" font-weight="700">CLIMB</text>
    <text x="540" y="470" text-anchor="middle" fill="#80879a" font-size="34" font-family="Arial, sans-serif" font-weight="700">＋ 单条记录</text>
  </g>

  <g transform="translate(32 1260)">
    <text x="0" y="0" fill="#ffffff" font-size="54" font-family="Arial, sans-serif" font-weight="700">RECENT SESSIONS</text>
    <text x="938" y="0" fill="#8e95a9" font-size="34" font-family="Arial, sans-serif" font-weight="700">5×</text>
  </g>

  <g transform="translate(32 1312)">
    <rect x="0" y="0" width="1016" height="254" rx="34" fill="#171f31" stroke="#2a3348" stroke-width="3"/>
    <text x="38" y="78" fill="#ffffff" font-size="34" font-family="Arial, sans-serif" font-weight="700">考拉攀岩(狮山店)</text>
    <text x="38" y="126" fill="#707992" font-size="24" font-family="Arial, sans-serif" font-weight="700">MAY 4 · 11:23 · 7秒 · 1 条</text>
    <rect x="38" y="170" width="136" height="56" rx="18" fill="#1d2433"/>
    <rect x="192" y="170" width="136" height="56" rx="18" fill="#19352d"/>
    <rect x="346" y="170" width="160" height="56" rx="18" fill="#1d2433"/>
    <text x="106" y="206" text-anchor="middle" fill="#7c8598" font-size="26" font-family="Arial, sans-serif" font-weight="700">Flash 0</text>
    <text x="260" y="206" text-anchor="middle" fill="#7be288" font-size="26" font-family="Arial, sans-serif" font-weight="700">Send 1</text>
    <text x="426" y="206" text-anchor="middle" fill="#7c8598" font-size="26" font-family="Arial, sans-serif" font-weight="700">Attempt 0</text>
    <rect x="850" y="34" width="118" height="92" rx="24" fill="#3b2d22" stroke="#5a4431" stroke-width="2"/>
    <text x="909" y="86" text-anchor="middle" fill="#ff9a42" font-size="56" font-family="Arial, sans-serif" font-weight="700">V5</text>
    <g transform="translate(926 178)">
      <circle cx="0" cy="0" r="82" fill="#ffffff"/>
      <circle cx="-26" cy="-34" r="17" fill="#333333"/>
      <circle cx="26" cy="-34" r="17" fill="#333333"/>
      <circle cx="-16" cy="-4" r="18" fill="#333333"/>
      <circle cx="16" cy="-4" r="18" fill="#333333"/>
      <circle cx="0" cy="6" r="26" fill="#ffffff"/>
      <circle cx="-9" cy="2" r="4" fill="#333333"/>
      <circle cx="9" cy="2" r="4" fill="#333333"/>
      <ellipse cx="0" cy="18" rx="8" ry="6" fill="#333333"/>
    </g>
  </g>

  <g transform="translate(32 1594)">
    <rect x="0" y="0" width="1016" height="254" rx="34" fill="#171f31" stroke="#2a3348" stroke-width="3"/>
    <text x="38" y="78" fill="#ffffff" font-size="34" font-family="Arial, sans-serif" font-weight="700">考拉攀岩(狮山店)</text>
  </g>

  <g transform="translate(0 1808)">
    <rect x="0" y="0" width="1080" height="112" fill="#0c1220" stroke="#20283a" stroke-width="2"/>
    <text x="68" y="58" fill="#f0f2f8" font-size="24" font-family="Arial, sans-serif">◉</text>
    <text x="54" y="94" fill="#8d96aa" font-size="20" font-family="Arial, sans-serif" font-weight="700">探索</text>
    <ellipse cx="310" cy="40" rx="78" ry="28" fill="#6f452f"/>
    <text x="310" y="58" text-anchor="middle" fill="#fff3ea" font-size="24" font-family="Arial, sans-serif">⚒</text>
    <text x="310" y="94" text-anchor="middle" fill="#ffffff" font-size="20" font-family="Arial, sans-serif" font-weight="700">记录</text>
    <text x="542" y="58" text-anchor="middle" fill="#f0f2f8" font-size="24" font-family="Arial, sans-serif">👥</text>
    <text x="542" y="94" text-anchor="middle" fill="#8d96aa" font-size="20" font-family="Arial, sans-serif" font-weight="700">社区</text>
    <text x="774" y="58" text-anchor="middle" fill="#f0f2f8" font-size="24" font-family="Arial, sans-serif">🔔</text>
    <text x="774" y="94" text-anchor="middle" fill="#8d96aa" font-size="20" font-family="Arial, sans-serif" font-weight="700">通知</text>
    <text x="1000" y="58" text-anchor="middle" fill="#f0f2f8" font-size="24" font-family="Arial, sans-serif">◌</text>
    <text x="1000" y="94" text-anchor="middle" fill="#8d96aa" font-size="20" font-family="Arial, sans-serif" font-weight="700">我的</text>
  </g>
</svg>
