<svg xmlns="http://www.w3.org/2000/svg" viewBox="0 0 1080 1920" role="img" aria-label="Record page after redesign">
  <defs>
    <clipPath id="screenClip">
      <rect width="1080" height="1920"/>
    </clipPath>
    <linearGradient id="photoFallback" x1="0" x2="1" y1="0" y2="1">
      <stop offset="0" stop-color="#5a5f55"/>
      <stop offset="0.45" stop-color="#7c483e"/>
      <stop offset="1" stop-color="#161d2c"/>
    </linearGradient>
    <linearGradient id="fade" x1="0" x2="0" y1="0" y2="1">
      <stop offset="0" stop-color="#000815" stop-opacity="0.18"/>
      <stop offset="0.38" stop-color="#020712" stop-opacity="0.28"/>
      <stop offset="0.56" stop-color="#050b17" stop-opacity="0.62"/>
      <stop offset="0.78" stop-color="#07101e" stop-opacity="0.95"/>
      <stop offset="1" stop-color="#07101e" stop-opacity="1"/>
    </linearGradient>
    <linearGradient id="card" x1="0" x2="1" y1="0" y2="1">
      <stop offset="0" stop-color="#131c2f"/>
      <stop offset="1" stop-color="#101827"/>
    </linearGradient>
    <linearGradient id="navPill" x1="0" x2="1">
      <stop offset="0" stop-color="#2d332f"/>
      <stop offset="1" stop-color="#70442d"/>
    </linearGradient>
    <radialGradient id="button" cx="50%" cy="38%" r="70%">
      <stop offset="0" stop-color="#928b82"/>
      <stop offset="0.65" stop-color="#6f6861"/>
      <stop offset="1" stop-color="#484640"/>
    </radialGradient>
    <filter id="shadow" x="-20%" y="-20%" width="140%" height="140%">
      <feDropShadow dx="0" dy="14" stdDeviation="20" flood-color="#000" flood-opacity="0.42"/>
    </filter>
    <filter id="grain">
      <feTurbulence type="fractalNoise" baseFrequency="0.8" numOctaves="2" stitchTiles="stitch"/>
      <feColorMatrix type="saturate" values="0"/>
      <feComponentTransfer>
        <feFuncA type="table" tableValues="0 0.13"/>
      </feComponentTransfer>
    </filter>
    <style>
      .font { font-family: Arial, "PingFang SC", "Microsoft YaHei", sans-serif; }
      .mono { font-family: "Arial Narrow", Arial, sans-serif; letter-spacing: 5px; }
      .white { fill: #f8f8f5; }
      .muted { fill: #8690a6; }
      .blueText { fill: #54627e; }
    </style>
  </defs>

  <g clip-path="url(#screenClip)">
    <rect width="1080" height="1920" fill="#07101e"/>
    <rect width="1080" height="860" fill="url(#photoFallback)"/>
    <image href="../../mobile_flutter/assets/images/climb_wall.jpg" x="-132" y="-42" width="1344" height="2016" preserveAspectRatio="xMidYMin slice" opacity="0.72"/>
    <rect width="1080" height="1920" fill="url(#fade)"/>
    <rect width="1080" height="1920" filter="url(#grain)" opacity="0.55"/>

    <rect x="0" y="0" width="1080" height="104" fill="#090f1d"/>
    <rect x="720" y="0" width="360" height="104" fill="#1b202d" opacity="0.9"/>
    <text class="font white" x="180" y="61" text-anchor="middle" font-size="34" font-weight="900">TRAIN</text>
    <text class="mono blueText" x="540" y="61" text-anchor="middle" font-size="27" font-weight="700">PROGRESS</text>
    <text class="mono blueText" x="900" y="61" text-anchor="middle" font-size="27" font-weight="700">BADGES</text>
    <rect x="136" y="102" width="92" height="6" rx="3" fill="#ff8740"/>

    <g transform="translate(48 328)">
      <text class="mono" x="0" y="0" fill="#c1beb7" font-size="25" font-weight="900">BEST THIS MONTH</text>
      <text class="font white" x="0" y="126" font-size="120" font-weight="900">V6</text>
      <text class="font" x="0" y="171" fill="#d2ccc6" font-size="25" font-weight="800">10 sessions this month</text>
      <path d="M6 221 C-4 211 -4 194 7 184 C18 197 28 201 43 199 C45 215 54 225 67 237 C50 241 37 236 29 221 C19 225 12 224 6 221 Z" fill="#adaaa9" opacity="0.7"/>
      <text class="font" x="40" y="235" fill="#c9c2ba" font-size="25" font-weight="800">Nearest: 攀月攀岩(相城天街店) · 6.6km</text>
    </g>

    <g transform="translate(972 302)">
      <text class="font" x="0" y="0" text-anchor="middle" fill="#f8d945" font-size="78" font-weight="900">2</text>
      <text class="mono" x="0" y="44" text-anchor="middle" fill="#f8d945" font-size="21" font-weight="900">FLASH</text>
      <text class="font" x="0" y="126" text-anchor="middle" fill="#73e488" font-size="78" font-weight="900">4</text>
      <text class="mono" x="0" y="170" text-anchor="middle" fill="#73e488" font-size="21" font-weight="900">SEND</text>
      <text class="font" x="0" y="238" text-anchor="middle" fill="#aaa9a3" font-size="38" font-weight="900">C</text>
    </g>

    <g transform="translate(540 642)" filter="url(#shadow)">
      <circle r="134" fill="url(#button)" stroke="#ff8127" stroke-width="4"/>
      <circle r="146" fill="none" stroke="#4b362b" stroke-width="8" opacity="0.85"/>
      <path d="M-34 -46 L-12 -70 L12 -35 L29 -51 L65 -6 L-65 -6 Z" fill="#fbf8f2"/>
      <text class="mono" y="50" text-anchor="middle" fill="#d8d3ca" font-size="28" font-weight="900">GO</text>
      <text class="font white" y="112" text-anchor="middle" font-size="51" font-weight="900">CLIMB</text>
    </g>
    <text class="font muted" x="540" y="805" text-anchor="middle" font-size="30" font-weight="800">＋ Log single climb</text>

    <g transform="translate(48 996)">
      <text class="mono white" x="0" y="0" font-size="35" font-weight="900">RECENT SESSIONS</text>
      <text class="font muted" x="988" y="0" text-anchor="end" font-size="36" font-weight="900">10×</text>
    </g>

    <g transform="translate(48 1042)" filter="url(#shadow)">
      <rect width="984" height="274" rx="31" fill="url(#card)" stroke="#665f26" stroke-width="2"/>
      <text class="font white" x="40" y="82" font-size="38" font-weight="900">攀月攀岩(相城天街店)</text>
      <text class="font blueText" x="40" y="139" font-size="27" font-weight="800">MAY 6 · 16:31 · 48秒 · 2 logs</text>
      <rect x="40" y="178" width="132" height="70" rx="16" fill="#343a25"/>
      <text class="font" x="106" y="220" text-anchor="middle" fill="#f5dc4e" font-size="28" font-weight="900">Flash 1</text>
      <rect x="190" y="178" width="132" height="70" rx="16" fill="#1a3a30"/>
      <text class="font" x="256" y="220" text-anchor="middle" fill="#7ce891" font-size="28" font-weight="900">Send 1</text>
      <rect x="340" y="178" width="164" height="70" rx="16" fill="#142035"/>
      <text class="font blueText" x="422" y="220" text-anchor="middle" font-size="28" font-weight="900">Attempt 0</text>
      <rect x="852" y="36" width="94" height="78" rx="16" fill="#493e2b" stroke="#a18b25" stroke-width="2"/>
      <text class="font" x="899" y="89" text-anchor="middle" fill="#f1cd35" font-size="42" font-weight="900">V6</text>
    </g>

    <g transform="translate(48 1356)" filter="url(#shadow)">
      <rect width="984" height="270" rx="31" fill="url(#card)" stroke="#29354b" stroke-width="3"/>
      <text class="font white" x="40" y="80" font-size="38" font-weight="900">考拉攀岩(狮山店)</text>
      <text class="font blueText" x="40" y="137" font-size="27" font-weight="800">MAY 5 · 22:02 · 11秒 · 0 logs</text>
      <rect x="40" y="178" width="132" height="70" rx="16" fill="#132033" opacity="0.9"/>
      <text class="font blueText" x="106" y="220" text-anchor="middle" font-size="28" font-weight="900">Flash 0</text>
      <rect x="190" y="178" width="132" height="70" rx="16" fill="#132033" opacity="0.9"/>
      <text class="font blueText" x="256" y="220" text-anchor="middle" font-size="28" font-weight="900">Send 0</text>
      <rect x="340" y="178" width="164" height="70" rx="16" fill="#132033" opacity="0.9"/>
      <text class="font blueText" x="422" y="220" text-anchor="middle" font-size="28" font-weight="900">Attempt 0</text>
    </g>

    <g transform="translate(952 1438)">
      <circle r="70" fill="#5b6674" stroke="#7e8792" stroke-width="2"/>
      <circle r="54" fill="#ffffff"/>
      <circle cx="-32" cy="-46" r="17" fill="#2f3338"/>
      <circle cx="32" cy="-46" r="17" fill="#2f3338"/>
      <ellipse cx="-22" cy="-8" rx="21" ry="25" fill="#34383d"/>
      <ellipse cx="22" cy="-8" rx="21" ry="25" fill="#34383d"/>
      <circle cx="-22" cy="-8" r="10" fill="#ffffff"/>
      <circle cx="22" cy="-8" r="10" fill="#ffffff"/>
      <circle cx="-20" cy="-8" r="4" fill="#34383d"/>
      <circle cx="20" cy="-8" r="4" fill="#34383d"/>
      <ellipse cx="0" cy="18" rx="11" ry="8" fill="#34383d"/>
      <path d="M-18 40 C-6 49 6 49 18 40" fill="none" stroke="#34383d" stroke-width="5" stroke-linecap="round"/>
    </g>

    <g transform="translate(0 1776)">
      <rect width="1080" height="144" fill="#0b1322"/>
      <g transform="translate(110 44)">
        <circle r="20" fill="none" stroke="#dcd3c8" stroke-width="6"/>
        <path d="M-9 11 L8 -13 L12 -7 L-6 15 Z" fill="#dcd3c8"/>
        <text class="font" x="0" y="74" text-anchor="middle" fill="#a6afc1" font-size="27" font-weight="700">Explore</text>
      </g>
      <g transform="translate(324 42)">
        <ellipse cx="0" cy="10" rx="70" ry="32" fill="url(#navPill)"/>
        <path d="M-17 2 L0 -15 L14 -1 L6 7 L31 32 L22 41 L-3 16 L-12 24 Z" fill="#fff0e9"/>
        <text class="font white" x="0" y="78" text-anchor="middle" font-size="28" font-weight="900">Train</text>
      </g>
      <g transform="translate(540 44)">
        <circle cx="-17" cy="-2" r="12" fill="none" stroke="#dcd3c8" stroke-width="5"/>
        <circle cx="17" cy="-2" r="12" fill="none" stroke="#dcd3c8" stroke-width="5"/>
        <path d="M-41 32 C-34 15 -9 15 -2 32 M4 32 C11 15 36 15 43 32" fill="none" stroke="#dcd3c8" stroke-width="5" stroke-linecap="round"/>
        <text class="font" x="0" y="74" text-anchor="middle" fill="#a6afc1" font-size="27" font-weight="700">Community</text>
      </g>
      <g transform="translate(756 44)">
        <path d="M-20 10 C-20 -16 20 -16 20 10 L20 28 L-20 28 Z" fill="none" stroke="#dcd3c8" stroke-width="5"/>
        <path d="M-30 28 L30 28 M-8 37 C-4 44 4 44 8 37" fill="none" stroke="#dcd3c8" stroke-width="5" stroke-linecap="round"/>
        <text class="font" x="0" y="74" text-anchor="middle" fill="#a6afc1" font-size="27" font-weight="700">Alerts</text>
      </g>
      <g transform="translate(970 44)">
        <circle cx="0" cy="-4" r="15" fill="none" stroke="#dcd3c8" stroke-width="5"/>
        <path d="M-30 34 C-24 12 24 12 30 34" fill="none" stroke="#dcd3c8" stroke-width="5" stroke-linecap="round"/>
        <text class="font" x="0" y="74" text-anchor="middle" fill="#a6afc1" font-size="27" font-weight="700">Profile</text>
      </g>
    </g>
  </g>
</svg>
