<svg xmlns="http://www.w3.org/2000/svg" viewBox="0 0 1080 1920" role="img" aria-label="Record page before redesign">
  <defs>
    <linearGradient id="bg" x1="0" x2="0" y1="0" y2="1">
      <stop offset="0" stop-color="#080d19"/>
      <stop offset="1" stop-color="#0c1425"/>
    </linearGradient>
    <linearGradient id="card" x1="0" x2="1" y1="0" y2="1">
      <stop offset="0" stop-color="#151d30"/>
      <stop offset="1" stop-color="#111827"/>
    </linearGradient>
    <linearGradient id="bottomPill" x1="0" x2="1">
      <stop offset="0" stop-color="#2e332e"/>
      <stop offset="1" stop-color="#70432f"/>
    </linearGradient>
    <filter id="shadow" x="-20%" y="-20%" width="140%" height="140%">
      <feDropShadow dx="0" dy="14" stdDeviation="18" flood-color="#000" flood-opacity="0.4"/>
    </filter>
    <filter id="ctaGlow" x="-20%" y="-50%" width="140%" height="200%">
      <feDropShadow dx="0" dy="16" stdDeviation="12" flood-color="#ff7a17" flood-opacity="0.28"/>
    </filter>
    <style>
      .font { font-family: Arial, "PingFang SC", "Microsoft YaHei", sans-serif; }
      .white { fill: #f7f7f5; }
      .muted { fill: #7b8293; }
      .dim { fill: #565e70; }
    </style>
  </defs>

  <rect width="1080" height="1920" fill="url(#bg)"/>
  <rect x="0" y="252" width="1080" height="2" fill="#1e2635"/>
  <rect x="0" y="258" width="1080" height="2" fill="#141b28"/>

  <text class="font white" x="18" y="58" font-size="56" font-weight="900">记录</text>

  <g transform="translate(0 120)">
    <g transform="translate(162 0)">
      <path d="M-22 28 L0 6 L16 21 L7 30 L35 58 L25 68 L-3 40 L-13 50 Z" fill="#f38231"/>
      <circle cx="0" cy="6" r="5" fill="#f38231"/>
      <circle cx="35" cy="58" r="5" fill="#f38231"/>
      <text class="font" x="8" y="107" text-anchor="middle" fill="#f38231" font-size="31" font-weight="900">训练</text>
      <rect x="-30" y="140" width="58" height="8" rx="4" fill="#f38231"/>
    </g>
    <g transform="translate(540 6)" opacity="0.5">
      <path d="M-34 44 L-17 28 L-5 40 L22 12 L34 24 L-5 64 L-18 51 L-30 63 Z" fill="#8990a0"/>
      <path d="M-14 8 L-4 -2 L6 8 L-4 18 ZM25 0 L32 -7 L39 0 L32 7 Z" fill="#8990a0"/>
      <text class="font" x="0" y="101" text-anchor="middle" fill="#8990a0" font-size="31" font-weight="800">进步</text>
    </g>
    <g transform="translate(916 2)" opacity="0.5">
      <path d="M0 0 C24 0 42 18 42 42 C42 58 35 72 24 80 L24 102 L0 92 L-24 102 L-24 80 C-36 72 -42 58 -42 42 C-42 18 -24 0 0 0 Z" fill="none" stroke="#8990a0" stroke-width="8"/>
      <path d="M0 23 L7 36 L20 38 L10 48 L13 61 L0 55 L-13 61 L-10 48 L-20 38 L-7 36 Z" fill="#8990a0"/>
      <text class="font" x="0" y="105" text-anchor="middle" fill="#8990a0" font-size="31" font-weight="800">徽章</text>
    </g>
  </g>

  <g transform="translate(34 314)" filter="url(#shadow)">
    <rect x="0" y="0" width="176" height="144" rx="24" fill="url(#card)" stroke="#222b3d" stroke-width="3"/>
    <text class="font muted" x="38" y="52" font-size="30" font-weight="800">本月训练</text>
    <text class="font white" x="38" y="112" font-size="43" font-weight="900">7 次</text>
    <rect x="214" y="0" width="176" height="144" rx="24" fill="url(#card)" stroke="#222b3d" stroke-width="3"/>
    <text class="font muted" x="254" y="52" font-size="30" font-weight="800">累计时长</text>
    <text class="font white" x="254" y="112" font-size="43" font-weight="900">0min</text>
  </g>

  <g transform="translate(34 492)" filter="url(#shadow)">
    <rect x="0" y="0" width="1012" height="102" rx="30" fill="#151c2e" stroke="#242d3f" stroke-width="3"/>
    <path d="M58 33 C43 33 31 45 31 60 C31 80 58 98 58 98 C58 98 85 80 85 60 C85 45 73 33 58 33 Z" fill="#9098a9"/>
    <circle cx="58" cy="60" r="8" fill="#151c2e"/>
    <text class="font muted" x="112" y="64" font-size="31" font-weight="800">最近：岩石攀岩·工业园区（3.2km）</text>
    <text class="font muted" x="982" y="67" text-anchor="middle" font-size="48" font-weight="900">C</text>
  </g>

  <g transform="translate(34 686)" filter="url(#ctaGlow)">
    <rect x="0" y="0" width="1012" height="136" rx="48" fill="#ff7717"/>
    <text class="font white" x="506" y="82" text-anchor="middle" font-size="48" font-weight="900">Go Climb</text>
  </g>
  <text class="font muted" x="540" y="904" text-anchor="middle" font-size="34" font-weight="800">＋ 单条记录</text>

  <g transform="translate(34 1034)">
    <text class="font white" x="0" y="0" font-size="42" font-weight="900">最近训练</text>
    <text class="font dim" x="1008" y="0" text-anchor="end" font-size="34" font-weight="800">共 7 次</text>
  </g>

  <g transform="translate(34 1084)" filter="url(#shadow)">
    <rect width="1012" height="252" rx="34" fill="url(#card)" stroke="#252e42" stroke-width="3"/>
    <text class="font white" x="38" y="72" font-size="35" font-weight="900">岩石攀岩·工业园区</text>
    <text class="font muted" x="38" y="122" font-size="26" font-weight="800">□ 4月11日 22:50    ◴ 0min    ▲ 3 条</text>
    <rect x="846" y="40" width="130" height="56" rx="24" fill="#3b2b22"/>
    <text class="font" x="911" y="77" text-anchor="middle" fill="#fb822b" font-size="27" font-weight="900">最高 V5</text>
    <rect x="38" y="162" width="108" height="60" rx="18" fill="#35381f"/>
    <text class="font" x="92" y="203" text-anchor="middle" fill="#ffd738" font-size="30" font-weight="900">↯ 1</text>
    <rect x="166" y="162" width="108" height="60" rx="18" fill="#193b35"/>
    <text class="font" x="220" y="203" text-anchor="middle" fill="#48e688" font-size="30" font-weight="900">✓ 1</text>
    <rect x="294" y="162" width="108" height="60" rx="18" fill="#3b3024"/>
    <text class="font" x="348" y="203" text-anchor="middle" fill="#ffc23a" font-size="30" font-weight="900">♟ 1</text>
  </g>

  <g transform="translate(34 1364)" filter="url(#shadow)">
    <rect width="1012" height="252" rx="34" fill="url(#card)" stroke="#252e42" stroke-width="3"/>
    <text class="font white" x="38" y="72" font-size="35" font-weight="900">苏州岩馆</text>
    <text class="font muted" x="38" y="122" font-size="26" font-weight="800">□ 4月11日 22:40    ◴ 0min    ▲ 3 条</text>
    <rect x="846" y="40" width="130" height="56" rx="24" fill="#3b2b22"/>
    <text class="font" x="911" y="77" text-anchor="middle" fill="#fb822b" font-size="27" font-weight="900">最高 V5</text>
    <rect x="38" y="162" width="108" height="60" rx="18" fill="#35381f"/>
    <text class="font" x="92" y="203" text-anchor="middle" fill="#ffd738" font-size="30" font-weight="900">↯ 1</text>
    <rect x="166" y="162" width="108" height="60" rx="18" fill="#193b35"/>
    <text class="font" x="220" y="203" text-anchor="middle" fill="#48e688" font-size="30" font-weight="900">✓ 1</text>
    <rect x="294" y="162" width="108" height="60" rx="18" fill="#3b3024"/>
    <text class="font" x="348" y="203" text-anchor="middle" fill="#ffc23a" font-size="30" font-weight="900">♟ 1</text>
  </g>

  <g transform="translate(34 1644)" filter="url(#shadow)">
    <rect width="1012" height="252" rx="34" fill="url(#card)" stroke="#252e42" stroke-width="3"/>
    <text class="font white" x="38" y="72" font-size="35" font-weight="900">岩石</text>
    <text class="font muted" x="38" y="122" font-size="26" font-weight="800">□ 4月11日 22:30    ◴ 0min    ▲ 1 条</text>
    <rect x="846" y="40" width="130" height="56" rx="24" fill="#3b2b22"/>
    <text class="font" x="911" y="77" text-anchor="middle" fill="#fb822b" font-size="27" font-weight="900">最高 VB</text>
    <rect x="38" y="162" width="108" height="60" rx="18" fill="#35381f"/>
    <text class="font" x="92" y="203" text-anchor="middle" fill="#ffd738" font-size="30" font-weight="900">↯ 1</text>
    <rect x="166" y="162" width="108" height="60" rx="18" fill="#193b35"/>
    <text class="font" x="220" y="203" text-anchor="middle" fill="#48e688" font-size="30" font-weight="900">✓ 0</text>
    <rect x="294" y="162" width="108" height="60" rx="18" fill="#3b3024"/>
    <text class="font" x="348" y="203" text-anchor="middle" fill="#ffc23a" font-size="30" font-weight="900">♟ 0</text>
  </g>

  <g transform="translate(0 1810)">
    <rect width="1080" height="110" fill="#10182a"/>
    <g transform="translate(84 30)">
      <circle r="22" fill="none" stroke="#e7dfd7" stroke-width="6"/>
      <path d="M-10 12 L8 -14 L12 -8 L-6 16 Z" fill="#e7dfd7"/>
      <text class="font" x="0" y="75" text-anchor="middle" fill="#a0a5b5" font-size="28" font-weight="800">探索</text>
    </g>
    <g transform="translate(300 26)">
      <ellipse cx="0" cy="9" rx="74" ry="34" fill="url(#bottomPill)"/>
      <path d="M-17 1 L0 -15 L14 -2 L6 7 L31 32 L22 41 L-3 16 L-12 24 Z" fill="#fff2eb"/>
      <text class="font white" x="0" y="79" text-anchor="middle" font-size="30" font-weight="900">记录</text>
    </g>
    <g transform="translate(540 30)">
      <circle cx="-16" cy="-2" r="13" fill="none" stroke="#e7dfd7" stroke-width="6"/>
      <circle cx="18" cy="-2" r="13" fill="none" stroke="#e7dfd7" stroke-width="6"/>
      <path d="M-42 34 C-35 15 -8 15 -2 34 M4 34 C10 15 38 15 44 34" fill="none" stroke="#e7dfd7" stroke-width="6" stroke-linecap="round"/>
      <text class="font" x="0" y="75" text-anchor="middle" fill="#a0a5b5" font-size="28" font-weight="800">社区</text>
    </g>
    <g transform="translate(760 30)">
      <path d="M-22 12 C-22 -18 22 -18 22 12 L22 30 L-22 30 Z" fill="none" stroke="#e7dfd7" stroke-width="6"/>
      <path d="M-32 30 L32 30 M-8 39 C-4 46 4 46 8 39" fill="none" stroke="#e7dfd7" stroke-width="6" stroke-linecap="round"/>
      <text class="font" x="0" y="75" text-anchor="middle" fill="#a0a5b5" font-size="28" font-weight="800">通知</text>
    </g>
    <g transform="translate(986 30)">
      <circle cx="0" cy="-4" r="16" fill="none" stroke="#e7dfd7" stroke-width="6"/>
      <path d="M-31 36 C-25 12 25 12 31 36" fill="none" stroke="#e7dfd7" stroke-width="6" stroke-linecap="round"/>
      <text class="font" x="0" y="75" text-anchor="middle" fill="#a0a5b5" font-size="28" font-weight="800">我的</text>
    </g>
  </g>
</svg>
